<svg width="1344" height="358" viewBox="0 0 1344 358" fill="none" xmlns="http://www.w3.org/2000/svg">
<path d="M382.408 228.304C380.47 228.304 379.14 226.442 379.14 224.314C379.14 220.628 381.686 219.336 381.686 215.156C381.686 209.76 378.608 209 378.608 205.048C378.608 202.806 380.888 200.26 382.484 200.26C383.586 200.26 383.966 201.438 383.966 202.616C384.004 205.428 382.218 207.822 382.218 210.596C382.218 211.812 382.75 213.256 383.662 213.256C384.27 213.256 384.802 212.534 385.106 211.85C387.044 207.708 386.246 201.704 390.692 201.704C392.82 201.704 394.074 204.098 394.074 206.074C394.074 207.936 392.896 209.76 391.414 209.76C390.122 209.76 389.438 208.24 388.336 208.24C386.588 208.24 387.158 211.622 386.17 212.952C385.6 213.788 384.802 213.94 384.802 215.156C384.802 216.448 385.828 217.246 387.158 217.246C391.794 217.702 394.72 218.652 394.72 223.022C394.72 225.188 393.124 227.62 391.072 227.62C389.704 227.62 388.83 226.252 388.83 224.656C388.83 223.174 389.21 222.376 389.21 220.97C389.21 219.412 388.678 218.424 387.158 218.424C386.246 218.424 385.068 218.69 384.498 217.626C384.194 216.866 384.004 215.916 383.472 215.916C383.016 215.916 383.016 216.828 383.016 217.588C383.016 220.97 385.562 222.3 385.562 225.264C385.562 227.126 383.966 228.304 382.408 228.304ZM400.992 228.646C398.18 228.646 396.128 226.594 396.128 223.668C396.128 220.21 397.99 218.234 397.99 214.89C397.952 212.078 396.204 209.342 396.204 206.454C396.204 203.262 398.902 200.716 401.562 200.944C404.754 200.944 408.098 204.174 408.098 207.708C408.098 209.684 406.996 211.356 406.996 213.294C406.996 216.22 410.188 217.018 410.15 219.716C410.188 224.884 404.792 228.646 400.992 228.646ZM399.776 223.972C401.296 223.972 401.334 220.628 403.31 220.628C404.108 220.628 404.868 221.464 405.742 221.464C406.35 221.464 406.768 220.932 406.768 220.362C406.768 218.5 404.222 215.08 404.222 212.724C404.222 210.482 406.502 209.076 406.502 206.834C406.502 204.554 404.07 202.388 401.752 202.388C400.004 202.388 398.484 203.68 398.484 205.466C398.484 208.012 401.562 209.114 401.562 211.85C401.562 214.852 398.712 219.222 398.712 222.072C398.712 223.212 399.168 223.972 399.776 223.972ZM413.955 228.456C412.131 228.456 411.333 225.986 411.333 223.706C411.333 219.374 414.107 217.626 414.107 213.408C414.107 210.178 412.663 206.72 412.663 204.782C412.701 203.528 413.537 202.046 414.563 202.046C416.843 202.046 417.185 207.062 419.731 207.062C423.417 207.062 423.949 200.678 427.483 200.678C428.699 200.678 429.915 201.742 429.991 203.262C429.991 206.644 426.381 208.43 426.381 212.192C426.381 217.36 430.675 219.07 430.675 223.288C430.675 225.682 429.573 227.696 427.293 227.696C424.253 227.696 423.493 223.972 423.493 219.868C423.493 216.98 425.279 213.94 425.279 211.698C425.279 209.95 423.835 208.582 422.467 208.582C420.263 208.582 420.149 210.976 420.149 213.028C420.225 214.586 421.441 219.26 421.441 220.59C421.441 222.034 420.681 222.338 419.845 222.338C418.363 222.338 417.337 220.02 417.337 218.272C417.337 215.65 419.085 213.218 419.085 210.406C419.085 209.38 418.553 208.202 417.679 208.202C415.703 208.202 415.133 210.862 415.133 214.054C415.133 218.158 416.387 221.54 416.387 224.694C416.387 226.784 415.779 228.456 413.955 228.456ZM450.26 228.19C445.966 228.19 440.608 223.174 440.608 218.804C440.608 216.79 441.748 215.498 443.344 215.498C447.524 215.498 447.258 225.226 450.868 225.226C452.236 225.226 453.262 223.136 453.262 221.16C453.262 219.108 451.894 216.866 450.184 215.954C449.082 215.27 447.79 215.042 447.03 214.054C446.308 213.066 446.194 211.736 445.586 210.672C443.99 208.354 441.292 208.772 441.292 205.922C441.292 202.388 443.838 200.564 447.106 200.564C450.564 200.564 454.592 203.528 454.592 206.796C454.592 208.354 453.756 209.114 452.464 209.114C449.5 209.114 448.322 205.314 446.498 204.326C446.118 204.098 445.7 203.984 445.282 203.984C444.028 203.984 442.85 204.858 442.85 206.074C442.85 207.214 443.762 208.012 444.636 208.392C445.396 208.734 446.118 209 446.688 209.646C447.752 210.71 447.752 212.61 448.816 213.712C449.804 214.89 451.362 214.852 452.578 215.726C454.44 217.094 454.706 219.412 454.706 221.692C454.706 225.454 453.908 228.19 450.26 228.19ZM460.987 228.342C458.289 228.342 456.389 226.67 456.389 223.212C456.389 220.932 456.503 220.324 458.327 215.992C458.745 214.966 458.745 214.13 458.745 213.522C458.745 210.976 456.845 211.166 456.845 206.948C456.845 203.908 459.923 200.526 463.115 200.526C466.573 200.526 468.777 203.642 468.777 207.328C468.777 209.532 467.903 210.368 467.903 212.154C467.903 214.966 470.335 217.056 470.335 219.906C470.335 221.312 469.765 222.718 468.777 223.554C468.017 224.162 467.067 224.428 466.117 225.568C464.559 227.468 463.761 228.342 460.987 228.342ZM459.429 225.568C460.949 225.568 461.519 223.478 462.317 221.578C463.115 219.944 463.495 219.678 464.331 219.678C464.787 219.678 465.395 219.754 466.269 219.754C467.523 219.754 468.169 218.804 468.169 217.512C468.169 215.764 466.877 213.978 466.877 212.192C466.877 211.052 467.409 209.798 467.409 208.62C467.409 206.302 466.421 206.074 464.407 206.074C463.115 206.074 463.001 205.352 461.671 205.352C460.037 205.352 459.049 207.594 459.049 208.886C459.049 210.71 459.923 211.888 459.923 213.788C459.923 217.93 457.567 219.45 457.567 222.642C457.605 224.01 458.327 225.568 459.429 225.568ZM474.269 228.076C472.331 228.076 471.077 226.404 471.077 224.352C471.077 220.21 474.839 218.196 474.839 214.016C474.839 211.166 473.395 208.924 473.395 206.226C473.395 203.452 475.295 201.4 477.689 201.4C478.753 201.4 478.981 202.426 478.981 203.376C478.981 203.832 478.905 204.364 478.905 204.858C478.905 206.188 479.589 206.91 480.615 206.91C481.679 206.91 482.439 206.226 483.199 205.542C485.593 203.566 486.315 200.868 489.279 200.868C490.723 200.868 491.331 202.198 491.331 203.718C491.331 205.732 489.545 207.366 489.545 209.532C489.545 213.902 491.521 216.98 491.521 221.046C491.483 223.592 490.039 226.556 487.683 226.556C486.201 226.556 485.289 225.416 485.289 223.896C485.289 220.438 488.215 217.474 488.215 213.56C488.215 210.254 487.151 206.606 484.947 206.606C483.275 206.606 481.869 208.582 481.869 210.482C481.869 211.812 482.325 213.218 482.819 214.434C483.845 216.942 484.339 217.284 484.339 218.728C484.301 220.438 483.123 221.388 481.907 221.388C479.969 221.388 478.753 219.222 478.753 217.132C478.753 214.32 480.691 212.002 480.805 209.836C480.805 208.582 480.235 207.214 479.019 207.214C477.803 207.214 476.511 209.076 476.283 210.178C476.055 211.09 475.979 212.002 475.979 212.952C475.979 216.41 477.575 221.008 477.575 223.554C477.575 225.872 476.435 228.076 474.269 228.076ZM505.681 228.456C503.743 228.456 502.755 227.354 502.755 225.796C502.755 223.858 503.971 222.718 503.971 220.894C503.971 219.906 503.629 219.032 503.629 218.082C503.629 215.878 505.149 214.776 505.149 212.078C505.149 208.468 501.767 205.618 501.767 203.224C501.767 202.008 502.375 201.134 503.553 201.134C504.845 201.134 506.137 201.818 507.543 201.818C508.949 201.818 509.975 201.362 511.419 201.362C514.193 201.362 516.359 202.54 516.359 205.314C516.359 206.796 515.637 208.468 515.637 210.216C515.675 212.8 516.663 215.384 516.663 217.93C516.663 223.82 511.305 228.456 505.681 228.456ZM508.417 223.592C510.773 223.592 512.673 220.894 512.673 218.12C512.673 215.498 511.115 214.624 511.115 212.42C511.115 211.28 511.495 210.178 511.951 209.076C512.673 207.594 513.433 205.96 513.433 204.516C513.433 203.338 512.787 202.274 511.647 202.274C510.507 202.274 509.329 203.338 508.227 203.338C507.505 203.338 507.163 202.92 505.871 202.92C504.655 202.92 503.971 203.68 503.971 204.668C503.971 205.086 504.085 205.542 504.313 205.998C505.035 207.48 505.833 208.924 506.023 210.558C506.251 211.888 507.505 215.992 507.505 217.018C507.505 218.956 506.023 219.526 506.023 221.16C506.023 222.756 506.859 223.592 508.417 223.592ZM526.237 228.304C521.639 228.304 519.853 222.148 519.853 216.714C519.853 215.954 519.891 215.232 519.891 214.472C519.891 213.56 519.853 212.648 519.511 211.812C518.713 209.114 517.839 209.608 517.839 206.644C517.839 203.794 519.739 201.02 522.095 201.02C523.045 201.02 523.463 201.742 523.463 202.768C523.463 205.314 521.449 205.314 521.449 209.836C521.449 210.748 521.487 211.736 521.487 212.648C521.373 214.32 520.917 215.992 520.955 217.664C520.955 221.236 523.349 226.518 525.135 226.518C525.477 226.518 526.123 226.176 526.085 225.15C525.895 221.92 529.201 223.098 529.201 221.084C529.201 220.172 528.593 219.146 528.593 217.626C528.593 216.752 528.935 215.232 528.935 214.358C528.935 211.318 527.453 208.962 527.453 205.884C527.453 203.528 528.555 201.4 530.379 201.4C532.393 201.4 533.077 204.25 533.077 206.796C533.077 211.85 530.721 212.154 529.923 216.828C529.847 217.284 529.847 217.778 529.847 218.196C529.847 219.906 530.341 221.654 530.341 223.326C530.341 226.1 528.593 228.304 526.237 228.304ZM554.062 228.266C552.504 228.266 551.174 226.252 549.502 226.252C548.172 226.252 547.108 227.772 545.702 227.772C544.068 227.772 542.89 225.492 542.89 223.63C542.89 220.476 545.55 217.854 545.55 214.586C545.55 208.81 542.89 208.088 542.89 204.44C542.89 202.654 544.524 201.172 545.93 201.172C547.374 201.172 547.906 202.578 549.35 202.578C550.908 202.578 552.048 201.02 553.72 201.02C555.354 201.02 555.734 202.464 555.734 203.718C555.734 206.112 554.328 208.164 552.58 208.164C550.224 208.164 549.958 204.858 547.982 204.858C546.462 204.858 546.158 206.302 546.158 208.126C546.158 211.432 546.424 213.674 548.286 213.674C549.958 213.674 551.212 211.356 552.656 211.356C553.948 211.356 554.442 213.028 554.442 214.244C554.442 216.182 553.454 217.474 552.124 217.474C550.49 217.474 549.73 215.232 548.21 215.232C546.994 215.232 546.538 216.904 546.538 218.538C546.538 221.198 547.64 224.808 549.236 224.808C551.326 224.808 553.53 220.02 555.05 220.02C556.456 220.02 556.836 221.578 556.836 223.136C556.836 225.948 556 228.266 554.062 228.266ZM569.059 228.266C567.235 228.266 566.323 226.594 566.323 225.112C566.323 222.946 567.729 221.008 567.729 218.424C567.729 217.436 567.539 216.6 567.197 216.144C565.867 214.396 565.031 213.712 564.157 213.712C562.599 213.674 562.143 214.548 562.143 215.764C562.143 218.424 563.511 220.856 563.511 223.288C563.511 225.834 562.371 227.81 560.471 227.81C558.761 227.81 557.583 225.796 557.583 223.972C557.583 220.248 560.737 217.816 560.737 213.028C560.737 209.646 558.533 206.606 558.533 204.174C558.533 202.122 559.673 201.438 561.421 201.438C562.067 201.514 562.751 201.628 563.397 201.628C565.525 201.628 566.551 200.26 567.691 200.26C569.971 200.26 570.845 202.806 570.655 205.276C570.465 206.796 569.211 208.164 569.135 209.684C569.059 212.078 566.513 211.736 566.513 212.838C566.513 213.674 567.539 215.004 568.033 215.46C569.135 216.6 568.869 217.968 569.743 219.26C570.465 220.248 571.643 220.818 572.137 221.882C572.403 222.49 572.555 223.136 572.555 223.782C572.555 225.834 571.111 228.266 569.059 228.266ZM564.233 212.306C565.563 212.306 566.399 211.622 566.399 210.444C566.399 208.962 567.349 208.126 568.299 207.442C568.641 207.214 568.755 206.91 568.755 206.53C568.755 205.086 567.387 202.882 565.791 202.882C563.131 202.882 562.295 206.986 562.295 210.558C562.295 211.622 562.675 212.306 564.233 212.306ZM573.924 231.496C573.202 231.496 572.632 230.964 572.632 230.242C572.632 229.292 573.05 228.722 573.734 228.38C574.114 228.19 574.456 228.038 574.456 227.582C574.456 226.366 573.848 225.948 573.848 224.656C573.848 223.022 575.482 222.072 576.774 222.072C578.066 222.072 578.902 222.946 578.902 224.352C578.902 225.682 578.028 226.86 576.964 227.658C574.684 229.33 576.204 231.496 573.924 231.496ZM382.256 270.19C380.47 270.228 379.444 268.214 379.444 266.276C379.444 263.16 381.116 259.246 381.116 255.636C381.078 253.66 381.002 251.646 379.976 249.974C379.064 248.758 378.19 247.694 378.19 246.364C378.19 245.148 378.874 244.388 380.128 244.388C381.002 244.426 381.838 244.768 382.712 244.768C385.068 244.768 385.828 242.45 388.298 242.45C389.932 242.45 391.3 243.628 391.3 245.3C391.3 247.01 389.818 248.568 388.07 248.568C386.132 248.568 385.03 246.06 383.472 246.06C381.838 246.06 381.496 247.998 381.382 249.708C381.382 251.76 381.876 253.014 384.042 253.318C387.918 253.926 386.968 250.544 389.628 250.544C390.578 250.544 391.224 251.646 391.224 252.634C391.224 254.192 389.248 256.282 387.538 256.282C385.524 256.282 385.752 254.458 384.27 254.458C382.408 254.458 382.18 257.346 382.18 259.702C382.18 264.452 385.296 264.718 385.296 267.568C385.296 269.088 383.966 270.19 382.256 270.19ZM396.788 270.342C394.09 270.342 392.19 268.67 392.19 265.212C392.19 262.932 392.304 262.324 394.128 257.992C394.546 256.966 394.546 256.13 394.546 255.522C394.546 252.976 392.646 253.166 392.646 248.948C392.646 245.908 395.724 242.526 398.916 242.526C402.374 242.526 404.578 245.642 404.578 249.328C404.578 251.532 403.704 252.368 403.704 254.154C403.704 256.966 406.136 259.056 406.136 261.906C406.136 263.312 405.566 264.718 404.578 265.554C403.818 266.162 402.868 266.428 401.918 267.568C400.36 269.468 399.562 270.342 396.788 270.342ZM395.23 267.568C396.75 267.568 397.32 265.478 398.118 263.578C398.916 261.944 399.296 261.678 400.132 261.678C400.588 261.678 401.196 261.754 402.07 261.754C403.324 261.754 403.97 260.804 403.97 259.512C403.97 257.764 402.678 255.978 402.678 254.192C402.678 253.052 403.21 251.798 403.21 250.62C403.21 248.302 402.222 248.074 400.208 248.074C398.916 248.074 398.802 247.352 397.472 247.352C395.838 247.352 394.85 249.594 394.85 250.886C394.85 252.71 395.724 253.888 395.724 255.788C395.724 259.93 393.368 261.45 393.368 264.642C393.406 266.01 394.128 267.568 395.23 267.568ZM410.448 270.646C408.32 270.646 407.37 268.214 407.37 266.238C407.37 264.072 408.092 262.894 409.232 259.702C409.802 258.22 410.182 256.51 410.182 254.838C410.182 250.734 407.522 249.48 407.522 246.554C407.522 244.084 409.384 243.78 411.778 243.78C412.956 243.78 415.046 242.982 417.098 242.982C419.72 242.982 421.43 244.464 421.43 246.782C421.43 248.074 420.708 248.796 420.708 249.822C420.708 250.658 421.088 251.38 421.164 252.178C421.164 253.774 420.062 254.724 418.276 254.724C416.87 254.724 416.794 253.432 415.844 253.432C415.198 253.47 414.932 254.078 414.932 254.724C414.932 255.94 415.768 256.472 416.186 257.46C416.49 258.182 416.414 260.272 416.528 261.032C416.756 262.628 417.022 263.198 417.706 263.198C418.428 263.198 420.632 262.096 421.658 262.096C422.912 262.096 423.482 263.122 423.482 264.832C423.482 267.416 420.974 269.81 418.77 269.81C416.338 269.81 415.236 266.504 415.084 263.578C415.046 262.096 415.084 260.652 414.742 257.916C414.628 257.004 414.058 256.016 413.222 256.016C412.424 256.016 411.892 256.928 411.626 257.802C411.36 258.714 411.208 259.74 411.208 260.728C411.208 261.602 411.322 262.514 411.588 263.35C412.462 266.2 412.842 266.2 412.842 267.72C412.842 269.354 412.044 270.646 410.448 270.646ZM413.412 253.394C413.982 252.748 414.818 252.52 415.54 252.33C416.794 251.874 417.516 251.608 417.516 250.24C417.516 248.34 416.946 249.024 415.198 247.276C414.856 246.934 414.704 246.44 414.476 246.098C413.83 245.186 412.88 244.692 411.93 244.692C410.22 244.692 409.08 246.326 409.08 247.732C409.08 248.872 409.954 249.48 410.296 250.24C410.562 250.772 410.638 251.38 410.676 251.95C411.17 254.534 412.006 255.142 413.412 253.394ZM427.021 270.342C425.311 270.342 424.171 268.1 424.171 266.048C424.171 261.374 427.325 258.828 427.439 254.268C427.439 251.912 426.679 249.062 426.679 247.504C426.679 245.034 428.237 242.982 430.365 242.982C432.113 242.982 432.759 244.084 432.759 245.604C432.759 250.658 428.351 249.898 428.351 256.662C428.351 260.918 426.223 261.64 426.223 265.212C426.223 266.352 426.679 267.454 427.743 267.454C430.935 267.454 431.125 259.436 434.735 259.436C436.141 259.436 436.863 261.032 436.863 262.704C436.863 265.25 435.647 268.252 433.481 268.252C432.189 268.252 431.847 267.074 430.935 267.074C429.377 267.074 428.959 270.342 427.021 270.342ZM439.883 270.38C438.439 270.38 437.527 268.822 437.489 266.96C437.413 264.186 441.289 260.728 441.821 259.018C441.973 258.638 442.011 258.22 442.011 257.84C441.935 256.89 441.707 255.94 441.669 254.952C441.669 251.228 444.329 252.596 444.329 248.72C444.329 247.96 444.253 247.238 444.215 246.44C444.177 244.388 444.937 242.678 446.457 242.678C448.585 242.678 450.789 247.58 450.789 250.354C450.789 252.064 449.991 253.698 449.991 255.142C450.029 256.586 450.979 257.802 451.891 258.866C453.677 260.652 455.007 261.716 455.083 264.224C455.121 266.846 453.677 269.924 451.359 269.924C449.345 269.924 448.851 268.062 449.003 265.782C449.269 264.3 449.953 262.894 449.953 261.45C449.953 259.74 449.231 258.258 447.673 258.258C445.013 258.258 444.177 261.26 443.835 263.958C443.379 267.112 442.771 270.38 439.883 270.38ZM444.785 257.536C446.381 257.536 447.825 255.864 448.547 254.192C449.079 252.976 449.269 251.266 449.117 249.86C449.079 248.416 448.509 247.276 447.521 247.276C446.115 247.276 445.203 248.872 445.203 250.582C445.203 253.698 443.113 252.786 443.113 255.522C443.113 256.624 443.949 257.536 444.785 257.536ZM457.807 270.342C456.325 270.342 455.641 269.012 455.641 267.796C455.641 266.618 455.755 266.162 456.363 265.25C456.933 264.376 457.617 263.54 458.111 262.59C458.491 261.906 458.757 261.032 458.757 260.196C458.757 258.676 457.541 257.46 457.541 256.206C457.541 254.61 458.985 253.47 458.985 251.95C458.985 249.518 456.021 248.112 456.021 245.794C456.021 243.856 457.845 242.868 459.745 242.868C462.481 242.868 461.607 243.856 464.647 243.856C467.383 243.856 469.093 244.654 469.093 247.656C469.093 250.012 467.877 251.646 467.877 254.002C467.915 256.928 469.929 259.55 469.929 262.552C469.929 264.148 469.473 265.744 468.637 266.96C466.813 269.696 465.217 269.43 461.835 269.43C459.745 269.43 459.441 270.342 457.807 270.342ZM461.835 267.682C464.001 267.682 465.863 264.832 465.863 262.286C465.863 258.98 463.127 257.156 463.127 254.23C463.127 252.976 463.507 251.76 464.001 250.658C464.723 248.872 465.141 248.568 465.141 247.162C465.141 245.452 463.545 244.806 462.063 244.806C460.619 244.806 460.201 245.794 460.049 246.934C460.011 248.074 460.087 249.138 460.087 250.278C460.087 251.342 460.011 252.368 459.593 253.394C459.327 254.154 458.833 254.876 458.947 255.826C459.061 256.472 459.593 258.98 459.593 259.968C459.593 260.538 459.479 261.146 459.479 261.83C459.555 262.666 459.783 263.426 460.049 264.186C460.429 265.516 460.277 267.568 461.835 267.682ZM490.19 270.19C485.896 270.19 480.538 265.174 480.538 260.804C480.538 258.79 481.678 257.498 483.274 257.498C487.454 257.498 487.188 267.226 490.798 267.226C492.166 267.226 493.192 265.136 493.192 263.16C493.192 261.108 491.824 258.866 490.114 257.954C489.012 257.27 487.72 257.042 486.96 256.054C486.238 255.066 486.124 253.736 485.516 252.672C483.92 250.354 481.222 250.772 481.222 247.922C481.222 244.388 483.768 242.564 487.036 242.564C490.494 242.564 494.522 245.528 494.522 248.796C494.522 250.354 493.686 251.114 492.394 251.114C489.43 251.114 488.252 247.314 486.428 246.326C486.048 246.098 485.63 245.984 485.212 245.984C483.958 245.984 482.78 246.858 482.78 248.074C482.78 249.214 483.692 250.012 484.566 250.392C485.326 250.734 486.048 251 486.618 251.646C487.682 252.71 487.682 254.61 488.746 255.712C489.734 256.89 491.292 256.852 492.508 257.726C494.37 259.094 494.636 261.412 494.636 263.692C494.636 267.454 493.838 270.19 490.19 270.19ZM501.249 270.266C499.387 270.266 498.133 268.746 498.133 266.77C498.133 263.578 500.299 261.678 500.299 258.562C500.299 256.7 499.349 255.066 499.349 252.862C499.349 249.176 501.591 247.998 501.591 246.022C501.591 245.186 501.211 244.882 500.717 244.882C499.577 244.882 498.323 246.592 496.613 246.592C495.777 246.592 495.093 245.946 495.093 244.958C495.093 243.552 496.613 242.488 498.247 242.488C500.527 242.488 501.743 243.78 503.833 243.78C505.049 243.78 506.227 243.172 507.405 243.172C508.849 243.172 509.875 243.97 509.875 245.452C509.875 246.782 509.115 248.112 507.671 248.112C505.847 248.112 505.961 246.212 504.555 246.06C503.947 246.06 503.415 246.402 503.149 246.668C501.743 248.302 500.831 250.81 500.831 252.976C500.831 255.142 501.629 257.118 502.199 259.056C502.807 261.032 503.909 266.352 503.909 267.264C503.909 269.012 503.073 270.266 501.249 270.266ZM521.851 270.266C520.293 270.266 518.963 268.252 517.291 268.252C515.961 268.252 514.897 269.772 513.491 269.772C511.857 269.772 510.679 267.492 510.679 265.63C510.679 262.476 513.339 259.854 513.339 256.586C513.339 250.81 510.679 250.088 510.679 246.44C510.679 244.654 512.313 243.172 513.719 243.172C515.163 243.172 515.695 244.578 517.139 244.578C518.697 244.578 519.837 243.02 521.509 243.02C523.143 243.02 523.523 244.464 523.523 245.718C523.523 248.112 522.117 250.164 520.369 250.164C518.013 250.164 517.747 246.858 515.771 246.858C514.251 246.858 513.947 248.302 513.947 250.126C513.947 253.432 514.213 255.674 516.075 255.674C517.747 255.674 519.001 253.356 520.445 253.356C521.737 253.356 522.231 255.028 522.231 256.244C522.231 258.182 521.243 259.474 519.913 259.474C518.279 259.474 517.519 257.232 515.999 257.232C514.783 257.232 514.327 258.904 514.327 260.538C514.327 263.198 515.429 266.808 517.025 266.808C519.115 266.808 521.319 262.02 522.839 262.02C524.245 262.02 524.625 263.578 524.625 265.136C524.625 267.948 523.789 270.266 521.851 270.266ZM527.684 270.342C526.202 270.342 525.518 269.012 525.518 267.796C525.518 266.618 525.632 266.162 526.24 265.25C526.81 264.376 527.494 263.54 527.988 262.59C528.368 261.906 528.634 261.032 528.634 260.196C528.634 258.676 527.418 257.46 527.418 256.206C527.418 254.61 528.862 253.47 528.862 251.95C528.862 249.518 525.898 248.112 525.898 245.794C525.898 243.856 527.722 242.868 529.622 242.868C532.358 242.868 531.484 243.856 534.524 243.856C537.26 243.856 538.97 244.654 538.97 247.656C538.97 250.012 537.754 251.646 537.754 254.002C537.792 256.928 539.806 259.55 539.806 262.552C539.806 264.148 539.35 265.744 538.514 266.96C536.69 269.696 535.094 269.43 531.712 269.43C529.622 269.43 529.318 270.342 527.684 270.342ZM531.712 267.682C533.878 267.682 535.74 264.832 535.74 262.286C535.74 258.98 533.004 257.156 533.004 254.23C533.004 252.976 533.384 251.76 533.878 250.658C534.6 248.872 535.018 248.568 535.018 247.162C535.018 245.452 533.422 244.806 531.94 244.806C530.496 244.806 530.078 245.794 529.926 246.934C529.888 248.074 529.964 249.138 529.964 250.278C529.964 251.342 529.888 252.368 529.47 253.394C529.204 254.154 528.71 254.876 528.824 255.826C528.938 256.472 529.47 258.98 529.47 259.968C529.47 260.538 529.356 261.146 529.356 261.83C529.432 262.666 529.66 263.426 529.926 264.186C530.306 265.516 530.154 267.568 531.712 267.682ZM552.875 270.266C551.317 270.266 549.987 268.252 548.315 268.252C546.985 268.252 545.921 269.772 544.515 269.772C542.881 269.772 541.703 267.492 541.703 265.63C541.703 262.476 544.363 259.854 544.363 256.586C544.363 250.81 541.703 250.088 541.703 246.44C541.703 244.654 543.337 243.172 544.743 243.172C546.187 243.172 546.719 244.578 548.163 244.578C549.721 244.578 550.861 243.02 552.533 243.02C554.167 243.02 554.547 244.464 554.547 245.718C554.547 248.112 553.141 250.164 551.393 250.164C549.037 250.164 548.771 246.858 546.795 246.858C545.275 246.858 544.971 248.302 544.971 250.126C544.971 253.432 545.237 255.674 547.099 255.674C548.771 255.674 550.025 253.356 551.469 253.356C552.761 253.356 553.255 255.028 553.255 256.244C553.255 258.182 552.267 259.474 550.937 259.474C549.303 259.474 548.543 257.232 547.023 257.232C545.807 257.232 545.351 258.904 545.351 260.538C545.351 263.198 546.453 266.808 548.049 266.808C550.139 266.808 552.343 262.02 553.863 262.02C555.269 262.02 555.649 263.578 555.649 265.136C555.649 267.948 554.813 270.266 552.875 270.266ZM562.256 270.266C560.394 270.266 559.14 268.746 559.14 266.77C559.14 263.578 561.306 261.678 561.306 258.562C561.306 256.7 560.356 255.066 560.356 252.862C560.356 249.176 562.598 247.998 562.598 246.022C562.598 245.186 562.218 244.882 561.724 244.882C560.584 244.882 559.33 246.592 557.62 246.592C556.784 246.592 556.1 245.946 556.1 244.958C556.1 243.552 557.62 242.488 559.254 242.488C561.534 242.488 562.75 243.78 564.84 243.78C566.056 243.78 567.234 243.172 568.412 243.172C569.856 243.172 570.882 243.97 570.882 245.452C570.882 246.782 570.122 248.112 568.678 248.112C566.854 248.112 566.968 246.212 565.562 246.06C564.954 246.06 564.422 246.402 564.156 246.668C562.75 248.302 561.838 250.81 561.838 252.976C561.838 255.142 562.636 257.118 563.206 259.056C563.814 261.032 564.916 266.352 564.916 267.264C564.916 269.012 564.08 270.266 562.256 270.266ZM590.051 270.19C585.757 270.19 580.399 265.174 580.399 260.804C580.399 258.79 581.539 257.498 583.135 257.498C587.315 257.498 587.049 267.226 590.659 267.226C592.027 267.226 593.053 265.136 593.053 263.16C593.053 261.108 591.685 258.866 589.975 257.954C588.873 257.27 587.581 257.042 586.821 256.054C586.099 255.066 585.985 253.736 585.377 252.672C583.781 250.354 581.083 250.772 581.083 247.922C581.083 244.388 583.629 242.564 586.897 242.564C590.355 242.564 594.383 245.528 594.383 248.796C594.383 250.354 593.547 251.114 592.255 251.114C589.291 251.114 588.113 247.314 586.289 246.326C585.909 246.098 585.491 245.984 585.073 245.984C583.819 245.984 582.641 246.858 582.641 248.074C582.641 249.214 583.553 250.012 584.427 250.392C585.187 250.734 585.909 251 586.479 251.646C587.543 252.71 587.543 254.61 588.607 255.712C589.595 256.89 591.153 256.852 592.369 257.726C594.231 259.094 594.497 261.412 594.497 263.692C594.497 267.454 593.699 270.19 590.051 270.19ZM600.778 270.342C598.08 270.342 596.18 268.67 596.18 265.212C596.18 262.932 596.294 262.324 598.118 257.992C598.536 256.966 598.536 256.13 598.536 255.522C598.536 252.976 596.636 253.166 596.636 248.948C596.636 245.908 599.714 242.526 602.906 242.526C606.364 242.526 608.568 245.642 608.568 249.328C608.568 251.532 607.694 252.368 607.694 254.154C607.694 256.966 610.126 259.056 610.126 261.906C610.126 263.312 609.556 264.718 608.568 265.554C607.808 266.162 606.858 266.428 605.908 267.568C604.35 269.468 603.552 270.342 600.778 270.342ZM599.22 267.568C600.74 267.568 601.31 265.478 602.108 263.578C602.906 261.944 603.286 261.678 604.122 261.678C604.578 261.678 605.186 261.754 606.06 261.754C607.314 261.754 607.96 260.804 607.96 259.512C607.96 257.764 606.668 255.978 606.668 254.192C606.668 253.052 607.2 251.798 607.2 250.62C607.2 248.302 606.212 248.074 604.198 248.074C602.906 248.074 602.792 247.352 601.462 247.352C599.828 247.352 598.84 249.594 598.84 250.886C598.84 252.71 599.714 253.888 599.714 255.788C599.714 259.93 597.358 261.45 597.358 264.642C597.396 266.01 598.118 267.568 599.22 267.568ZM614.06 270.076C612.122 270.076 610.868 268.404 610.868 266.352C610.868 262.21 614.63 260.196 614.63 256.016C614.63 253.166 613.186 250.924 613.186 248.226C613.186 245.452 615.086 243.4 617.48 243.4C618.544 243.4 618.772 244.426 618.772 245.376C618.772 245.832 618.696 246.364 618.696 246.858C618.696 248.188 619.38 248.91 620.406 248.91C621.47 248.91 622.23 248.226 622.99 247.542C625.384 245.566 626.106 242.868 629.07 242.868C630.514 242.868 631.122 244.198 631.122 245.718C631.122 247.732 629.336 249.366 629.336 251.532C629.336 255.902 631.312 258.98 631.312 263.046C631.274 265.592 629.83 268.556 627.474 268.556C625.992 268.556 625.08 267.416 625.08 265.896C625.08 262.438 628.006 259.474 628.006 255.56C628.006 252.254 626.942 248.606 624.738 248.606C623.066 248.606 621.66 250.582 621.66 252.482C621.66 253.812 622.116 255.218 622.61 256.434C623.636 258.942 624.13 259.284 624.13 260.728C624.092 262.438 622.914 263.388 621.698 263.388C619.76 263.388 618.544 261.222 618.544 259.132C618.544 256.32 620.482 254.002 620.596 251.836C620.596 250.582 620.026 249.214 618.81 249.214C617.594 249.214 616.302 251.076 616.074 252.178C615.846 253.09 615.77 254.002 615.77 254.952C615.77 258.41 617.366 263.008 617.366 265.554C617.366 267.872 616.226 270.076 614.06 270.076ZM652.996 270.266C651.438 270.266 650.108 268.252 648.436 268.252C647.106 268.252 646.042 269.772 644.636 269.772C643.002 269.772 641.824 267.492 641.824 265.63C641.824 262.476 644.484 259.854 644.484 256.586C644.484 250.81 641.824 250.088 641.824 246.44C641.824 244.654 643.458 243.172 644.864 243.172C646.308 243.172 646.84 244.578 648.284 244.578C649.842 244.578 650.982 243.02 652.654 243.02C654.288 243.02 654.668 244.464 654.668 245.718C654.668 248.112 653.262 250.164 651.514 250.164C649.158 250.164 648.892 246.858 646.916 246.858C645.396 246.858 645.092 248.302 645.092 250.126C645.092 253.432 645.358 255.674 647.22 255.674C648.892 255.674 650.146 253.356 651.59 253.356C652.882 253.356 653.376 255.028 653.376 256.244C653.376 258.182 652.388 259.474 651.058 259.474C649.424 259.474 648.664 257.232 647.144 257.232C645.928 257.232 645.472 258.904 645.472 260.538C645.472 263.198 646.574 266.808 648.17 266.808C650.26 266.808 652.464 262.02 653.984 262.02C655.39 262.02 655.77 263.578 655.77 265.136C655.77 267.948 654.934 270.266 652.996 270.266ZM660.317 270.304C658.379 270.304 657.467 268.062 657.467 265.63C657.467 261.792 658.645 260.576 658.645 256.396C658.645 252.976 657.239 249.974 657.239 247.086C657.239 245.148 658.151 242.83 659.861 243.096C661.419 243.324 661.951 247.314 662.559 248.568C662.939 249.48 663.585 250.278 664.041 251.114C665.295 253.242 665.143 258.752 666.701 258.22C667.613 257.916 666.473 256.51 667.119 252.52C667.309 251.342 668.107 250.088 668.107 248.91C668.107 246.896 667.613 246.326 667.613 244.768C667.613 243.666 668.221 242.564 669.247 242.564C670.501 242.564 671.299 244.388 671.299 245.946C671.109 248.682 669.817 249.86 668.905 252.14C668.449 253.09 668.069 254.23 668.069 255.408C668.069 259.056 670.805 261.868 670.805 265.136C670.767 267.112 669.551 268.898 668.069 268.898C666.093 268.898 665.181 266.732 665.181 264.376C665.181 263.73 665.219 263.046 665.219 262.438C665.219 258.638 662.787 249.86 660.735 249.86C659.557 249.86 659.861 254.496 660.469 256.852C661.001 258.676 661.761 260.158 662.369 261.906C662.787 263.122 663.129 264.452 663.129 265.82C663.129 268.1 662.027 270.304 660.317 270.304ZM685.327 270.456C683.389 270.456 682.401 269.354 682.401 267.796C682.401 265.858 683.617 264.718 683.617 262.894C683.617 261.906 683.275 261.032 683.275 260.082C683.275 257.878 684.795 256.776 684.795 254.078C684.795 250.468 681.413 247.618 681.413 245.224C681.413 244.008 682.021 243.134 683.199 243.134C684.491 243.134 685.783 243.818 687.189 243.818C688.595 243.818 689.621 243.362 691.065 243.362C693.839 243.362 696.005 244.54 696.005 247.314C696.005 248.796 695.283 250.468 695.283 252.216C695.321 254.8 696.309 257.384 696.309 259.93C696.309 265.82 690.951 270.456 685.327 270.456ZM688.063 265.592C690.419 265.592 692.319 262.894 692.319 260.12C692.319 257.498 690.761 256.624 690.761 254.42C690.761 253.28 691.141 252.178 691.597 251.076C692.319 249.594 693.079 247.96 693.079 246.516C693.079 245.338 692.433 244.274 691.293 244.274C690.153 244.274 688.975 245.338 687.873 245.338C687.151 245.338 686.809 244.92 685.517 244.92C684.301 244.92 683.617 245.68 683.617 246.668C683.617 247.086 683.731 247.542 683.959 247.998C684.681 249.48 685.479 250.924 685.669 252.558C685.897 253.888 687.151 257.992 687.151 259.018C687.151 260.956 685.669 261.526 685.669 263.16C685.669 264.756 686.505 265.592 688.063 265.592ZM698.902 270.57C697.534 270.57 697.002 268.822 697.002 267.568C697.002 265.326 697.914 262.97 698.712 260.994C699.206 259.588 699.814 258.106 699.814 256.624C699.776 253.85 697.8 252.14 697.8 249.442C697.8 247.01 699.396 244.768 701.828 244.768C702.36 244.768 702.892 244.882 703.386 244.882C705.438 244.882 706.236 242.564 708.022 242.564C709.314 242.564 709.998 244.578 709.998 245.832C709.998 247.694 708.516 249.1 707.072 249.1C705.666 249.1 704.45 247.352 702.968 247.352C701.068 247.352 699.586 249.214 699.586 251.418C699.586 253.242 700.536 255.294 702.208 255.294C703.956 255.294 704.868 252.976 706.54 252.976C707.794 252.976 708.098 253.736 708.174 254.952C708.174 256.966 707.11 258.372 705.552 258.372C703.88 258.372 704.298 256.548 702.93 256.548C701.638 256.548 699.396 262.172 698.788 265.06C698.522 266.694 698.712 268.1 699.7 268.1C700.46 268.1 700.536 266.162 702.36 266.162C702.664 266.162 702.892 266.238 703.158 266.238C705.856 266.238 705.894 261.564 708.44 261.564C709.58 261.564 709.922 262.818 709.922 263.996C709.922 266.998 708.668 269.81 706.35 269.848C704.678 269.848 703.88 267.53 702.778 267.758C702.094 267.758 701.6 268.594 701.106 269.24C700.536 270 699.7 270.57 698.902 270.57ZM713.531 269.886C712.163 269.886 711.479 268.252 711.479 266.428C711.479 263.312 713.607 255.408 713.607 252.178C713.607 250.012 711.783 247.276 711.783 245.794C711.783 244.502 713.037 243.324 714.215 243.324C716.191 243.324 717.521 245.376 717.521 247.656C717.521 252.634 713.683 256.624 713.531 261.032C713.493 262.362 713.645 263.692 713.911 264.984C714.177 266.2 714.519 267.074 715.659 267.074C718.433 267.074 718.889 261.83 721.853 261.83C723.031 261.83 723.981 263.046 723.981 264.262C723.981 266.428 722.347 269.202 720.599 269.202C719.421 269.202 718.357 268.062 717.179 268.062C715.735 268.062 714.823 269.886 713.531 269.886ZM380.508 312.38C379.064 312.38 378.152 310.822 378.114 308.96C378.038 306.186 381.914 302.728 382.446 301.018C382.598 300.638 382.636 300.22 382.636 299.84C382.56 298.89 382.332 297.94 382.294 296.952C382.294 293.228 384.954 294.596 384.954 290.72C384.954 289.96 384.878 289.238 384.84 288.44C384.802 286.388 385.562 284.678 387.082 284.678C389.21 284.678 391.414 289.58 391.414 292.354C391.414 294.064 390.616 295.698 390.616 297.142C390.654 298.586 391.604 299.802 392.516 300.866C394.302 302.652 395.632 303.716 395.708 306.224C395.746 308.846 394.302 311.924 391.984 311.924C389.97 311.924 389.476 310.062 389.628 307.782C389.894 306.3 390.578 304.894 390.578 303.45C390.578 301.74 389.856 300.258 388.298 300.258C385.638 300.258 384.802 303.26 384.46 305.958C384.004 309.112 383.396 312.38 380.508 312.38ZM385.41 299.536C387.006 299.536 388.45 297.864 389.172 296.192C389.704 294.976 389.894 293.266 389.742 291.86C389.704 290.416 389.134 289.276 388.146 289.276C386.74 289.276 385.828 290.872 385.828 292.582C385.828 295.698 383.738 294.786 383.738 297.522C383.738 298.624 384.574 299.536 385.41 299.536ZM399.534 312.19C397.938 312.19 396.912 310.024 396.912 308.352C396.912 305.502 398.546 303.754 399.344 301.436C399.686 300.41 399.838 299.27 399.838 298.13C399.838 295.736 399.154 293.228 397.938 291.214C397.368 290.188 396.608 289.2 396.608 288.022C396.608 286.616 397.52 285.248 398.698 285.248C399.838 285.248 400.028 286.274 401.624 286.274C403.144 286.274 404.246 284.64 405.804 284.64C407.628 284.64 409.072 286.502 409.072 288.516C409.072 290.264 408.122 291.556 406.754 291.556C405.766 291.556 404.892 290.796 404.018 290.036C403.334 289.428 402.574 288.706 401.776 288.706C400.636 288.706 400.294 290.53 400.294 292.164C400.294 294.254 400.864 296.914 402.27 296.914C402.726 296.914 403.106 296.648 403.448 296.344C404.436 295.356 405.12 293.494 406.488 293.494C407.78 293.494 408.426 295.09 408.426 296.268C408.426 298.206 407.438 300.6 405.614 300.6C404.056 300.6 403.41 298.548 402.232 298.548C401.434 298.624 400.522 299.65 400.522 300.714C400.37 302.652 401.966 305.502 401.966 308.162C401.966 310.252 401.092 312.19 399.534 312.19ZM421.951 312.152C420.051 312.152 418.987 310.252 418.987 308.542C418.987 304.894 423.167 303.906 423.167 299.726C423.167 295.622 418.721 293.228 418.721 289.58C418.721 287.034 420.089 285.78 422.255 285.78C425.789 285.78 428.563 293.342 428.563 297.56C428.563 299.802 427.879 301.93 427.879 304.172C427.879 306.794 428.905 309.188 431.033 309.188C432.363 309.188 432.895 308.162 432.895 306.718C432.895 303.678 430.919 300.98 430.919 297.484C430.919 296.04 431.679 294.9 431.679 293.532C431.641 291.328 429.893 289.352 429.893 287.376C429.893 285.78 431.071 284.678 432.439 284.678C434.529 284.678 436.163 286.882 436.163 289.162C436.163 293.228 433.123 293.532 433.123 298.472C433.123 302.31 434.681 304.286 434.681 307.592C434.681 309.796 433.731 311.316 431.299 311.316C428.449 311.316 426.701 308.694 426.701 305.578C426.701 303.374 427.271 302.348 427.271 299.232C427.271 296.838 426.245 292.772 424.649 292.772C423.661 292.772 423.167 293.874 423.167 294.634C423.167 296.496 424.839 298.358 424.839 300.41C424.839 302.158 424.193 302.994 424.193 304.818C424.193 305.35 424.421 307.326 424.421 308.352C424.421 310.138 423.813 312.152 421.951 312.152ZM441.913 312.342C439.215 312.342 437.315 310.67 437.315 307.212C437.315 304.932 437.429 304.324 439.253 299.992C439.671 298.966 439.671 298.13 439.671 297.522C439.671 294.976 437.771 295.166 437.771 290.948C437.771 287.908 440.849 284.526 444.041 284.526C447.499 284.526 449.703 287.642 449.703 291.328C449.703 293.532 448.829 294.368 448.829 296.154C448.829 298.966 451.261 301.056 451.261 303.906C451.261 305.312 450.691 306.718 449.703 307.554C448.943 308.162 447.993 308.428 447.043 309.568C445.485 311.468 444.687 312.342 441.913 312.342ZM440.355 309.568C441.875 309.568 442.445 307.478 443.243 305.578C444.041 303.944 444.421 303.678 445.257 303.678C445.713 303.678 446.321 303.754 447.195 303.754C448.449 303.754 449.095 302.804 449.095 301.512C449.095 299.764 447.803 297.978 447.803 296.192C447.803 295.052 448.335 293.798 448.335 292.62C448.335 290.302 447.347 290.074 445.333 290.074C444.041 290.074 443.927 289.352 442.597 289.352C440.963 289.352 439.975 291.594 439.975 292.886C439.975 294.71 440.849 295.888 440.849 297.788C440.849 301.93 438.493 303.45 438.493 306.642C438.531 308.01 439.253 309.568 440.355 309.568ZM456.673 312.494C454.241 312.494 452.531 310.404 452.417 307.706C452.303 303.716 455.039 301.094 454.735 297.142C454.393 293.722 452.797 294.596 452.645 290.492C452.531 287.186 454.583 285.134 458.003 285.134C463.551 285.134 466.439 288.402 466.553 291.822C466.629 293.95 464.919 295.584 463.209 295.584C462.221 295.584 461.499 294.672 461.461 293.722C461.423 292.392 462.373 291.214 462.335 289.732C462.259 287.832 460.093 286.806 458.155 286.806C455.723 286.806 455.001 288.782 455.077 290.872C455.153 293.152 456.331 295.774 456.369 297.788C456.483 300.752 454.621 302.006 454.735 304.818C454.811 306.946 456.217 308.922 457.889 308.922C459.485 308.922 460.245 306.756 461.613 306.11C464.311 304.78 465.755 306.11 465.641 303.184C465.603 301.626 464.843 299.08 463.361 299.08C462.411 299.08 461.803 300.106 461.347 301.094C460.853 301.968 460.245 302.994 459.295 302.994C458.231 302.994 457.471 301.74 457.395 300.6C457.357 298.51 459.257 296.914 461.537 296.914C464.805 296.914 467.161 299.27 467.313 303.108C467.389 305.122 466.667 309.34 465.071 309.34C463.969 309.34 462.943 308.162 461.689 308.162C459.751 308.162 460.511 312.494 456.673 312.494ZM470.086 312.57C468.718 312.57 468.186 310.822 468.186 309.568C468.186 307.326 469.098 304.97 469.896 302.994C470.39 301.588 470.998 300.106 470.998 298.624C470.96 295.85 468.984 294.14 468.984 291.442C468.984 289.01 470.58 286.768 473.012 286.768C473.544 286.768 474.076 286.882 474.57 286.882C476.622 286.882 477.42 284.564 479.206 284.564C480.498 284.564 481.182 286.578 481.182 287.832C481.182 289.694 479.7 291.1 478.256 291.1C476.85 291.1 475.634 289.352 474.152 289.352C472.252 289.352 470.77 291.214 470.77 293.418C470.77 295.242 471.72 297.294 473.392 297.294C475.14 297.294 476.052 294.976 477.724 294.976C478.978 294.976 479.282 295.736 479.358 296.952C479.358 298.966 478.294 300.372 476.736 300.372C475.064 300.372 475.482 298.548 474.114 298.548C472.822 298.548 470.58 304.172 469.972 307.06C469.706 308.694 469.896 310.1 470.884 310.1C471.644 310.1 471.72 308.162 473.544 308.162C473.848 308.162 474.076 308.238 474.342 308.238C477.04 308.238 477.078 303.564 479.624 303.564C480.764 303.564 481.106 304.818 481.106 305.996C481.106 308.998 479.852 311.81 477.534 311.848C475.862 311.848 475.064 309.53 473.962 309.758C473.278 309.758 472.784 310.594 472.29 311.24C471.72 312 470.884 312.57 470.086 312.57ZM488.708 312.38C485.364 312.38 483.996 309.872 483.996 306.68C483.996 305.54 484.186 304.438 484.528 303.336C486.01 298.7 489.506 295.432 490.76 290.606C490.836 290.302 490.912 289.998 490.912 289.732C490.912 289.276 490.57 288.63 490.038 288.63C489.582 288.63 489.468 288.782 486.124 290.834C485.288 291.328 484.338 291.784 483.844 291.784C482.742 291.784 481.944 290.682 481.944 289.39C481.944 287.376 483.54 285.818 485.174 285.894C487.454 286.122 488.67 286.236 489.658 286.236C492.432 286.236 493.8 284.944 496.536 284.944C498.55 284.944 499.614 285.818 499.614 287.414C499.614 289.01 497.79 290.378 496.08 290.378C494.864 290.378 493.382 289.238 492.698 289.238C491.824 289.238 492.356 290.416 492.356 291.176C492.356 293.532 490.57 295.584 489.24 297.256C487.948 298.928 486.846 300.486 486.238 302.728C486.01 303.488 485.858 304.362 485.858 305.236C485.858 307.022 486.162 309.72 487.492 309.72C488.974 309.72 491.178 305.388 492.014 303.07C492.66 301.284 493.344 299.384 494.826 299.384C496.384 299.384 496.688 301.702 496.688 303.146C496.688 308.124 493.192 312.38 488.708 312.38ZM518.838 312.19C514.544 312.19 509.186 307.174 509.186 302.804C509.186 300.79 510.326 299.498 511.922 299.498C516.102 299.498 515.836 309.226 519.446 309.226C520.814 309.226 521.84 307.136 521.84 305.16C521.84 303.108 520.472 300.866 518.762 299.954C517.66 299.27 516.368 299.042 515.608 298.054C514.886 297.066 514.772 295.736 514.164 294.672C512.568 292.354 509.87 292.772 509.87 289.922C509.87 286.388 512.416 284.564 515.684 284.564C519.142 284.564 523.17 287.528 523.17 290.796C523.17 292.354 522.334 293.114 521.042 293.114C518.078 293.114 516.9 289.314 515.076 288.326C514.696 288.098 514.278 287.984 513.86 287.984C512.606 287.984 511.428 288.858 511.428 290.074C511.428 291.214 512.34 292.012 513.214 292.392C513.974 292.734 514.696 293 515.266 293.646C516.33 294.71 516.33 296.61 517.394 297.712C518.382 298.89 519.94 298.852 521.156 299.726C523.018 301.094 523.284 303.412 523.284 305.692C523.284 309.454 522.486 312.19 518.838 312.19ZM529.897 312.266C528.035 312.266 526.781 310.746 526.781 308.77C526.781 305.578 528.947 303.678 528.947 300.562C528.947 298.7 527.997 297.066 527.997 294.862C527.997 291.176 530.239 289.998 530.239 288.022C530.239 287.186 529.859 286.882 529.365 286.882C528.225 286.882 526.971 288.592 525.261 288.592C524.425 288.592 523.741 287.946 523.741 286.958C523.741 285.552 525.261 284.488 526.895 284.488C529.175 284.488 530.391 285.78 532.481 285.78C533.697 285.78 534.875 285.172 536.053 285.172C537.497 285.172 538.523 285.97 538.523 287.452C538.523 288.782 537.763 290.112 536.319 290.112C534.495 290.112 534.609 288.212 533.203 288.06C532.595 288.06 532.063 288.402 531.797 288.668C530.391 290.302 529.479 292.81 529.479 294.976C529.479 297.142 530.277 299.118 530.847 301.056C531.455 303.032 532.557 308.352 532.557 309.264C532.557 311.012 531.721 312.266 529.897 312.266ZM544.39 314.508C544.01 314.28 543.744 313.596 543.63 312.646C541.046 312.418 539.222 310.442 539.222 307.668C539.222 304.21 541.084 302.234 541.084 298.89C541.046 296.078 539.298 293.342 539.298 290.454C539.298 287.262 541.996 284.716 544.656 284.944C545.188 284.944 545.72 285.02 546.252 285.21C546.632 284.146 547.088 283.538 547.468 283.728C548 283.956 548.19 284.906 548.19 286.198C549.938 287.452 551.192 289.542 551.192 291.708C551.192 293.684 550.09 295.356 550.09 297.294C550.09 300.22 553.282 301.018 553.244 303.716C553.282 308.162 549.254 311.582 545.72 312.456C545.454 313.938 544.998 314.774 544.39 314.508ZM542.87 307.972C543.212 307.972 543.478 307.782 543.744 307.516C543.744 307.364 543.744 307.212 543.782 307.06C544.162 303.868 544.656 301.626 544.998 298.928C545.454 295.926 545.34 290.796 545.758 287.68C545.796 287.262 545.834 286.882 545.91 286.54C545.568 286.426 545.188 286.388 544.846 286.388C543.098 286.388 541.578 287.68 541.578 289.466C541.578 292.012 544.656 293.114 544.656 295.85C544.656 298.852 541.806 303.222 541.806 306.072C541.806 307.212 542.262 307.972 542.87 307.972ZM548.836 305.464C549.444 305.464 549.862 304.932 549.862 304.362C549.862 302.5 547.316 299.08 547.316 296.724C547.316 294.482 549.596 293.076 549.596 290.834C549.596 289.732 549.026 288.63 548.152 287.794C548.114 288.516 548.038 289.276 547.924 290.036C547.544 293.342 546.974 293.114 546.48 297.028C546.176 299.536 546.214 302.082 546.214 304.628H546.404C547.202 304.628 547.962 305.464 548.836 305.464ZM557.994 312.646C555.866 312.646 554.916 310.214 554.916 308.238C554.916 306.072 555.638 304.894 556.778 301.702C557.348 300.22 557.728 298.51 557.728 296.838C557.728 292.734 555.068 291.48 555.068 288.554C555.068 286.084 556.93 285.78 559.324 285.78C560.502 285.78 562.592 284.982 564.644 284.982C567.266 284.982 568.976 286.464 568.976 288.782C568.976 290.074 568.254 290.796 568.254 291.822C568.254 292.658 568.634 293.38 568.71 294.178C568.71 295.774 567.608 296.724 565.822 296.724C564.416 296.724 564.34 295.432 563.39 295.432C562.744 295.47 562.478 296.078 562.478 296.724C562.478 297.94 563.314 298.472 563.732 299.46C564.036 300.182 563.96 302.272 564.074 303.032C564.302 304.628 564.568 305.198 565.252 305.198C565.974 305.198 568.178 304.096 569.204 304.096C570.458 304.096 571.028 305.122 571.028 306.832C571.028 309.416 568.52 311.81 566.316 311.81C563.884 311.81 562.782 308.504 562.63 305.578C562.592 304.096 562.63 302.652 562.288 299.916C562.174 299.004 561.604 298.016 560.768 298.016C559.97 298.016 559.438 298.928 559.172 299.802C558.906 300.714 558.754 301.74 558.754 302.728C558.754 303.602 558.868 304.514 559.134 305.35C560.008 308.2 560.388 308.2 560.388 309.72C560.388 311.354 559.59 312.646 557.994 312.646ZM560.958 295.394C561.528 294.748 562.364 294.52 563.086 294.33C564.34 293.874 565.062 293.608 565.062 292.24C565.062 290.34 564.492 291.024 562.744 289.276C562.402 288.934 562.25 288.44 562.022 288.098C561.376 287.186 560.426 286.692 559.476 286.692C557.766 286.692 556.626 288.326 556.626 289.732C556.626 290.872 557.5 291.48 557.842 292.24C558.108 292.772 558.184 293.38 558.222 293.95C558.716 296.534 559.552 297.142 560.958 295.394ZM583.346 312.266C581.522 312.266 580.61 310.594 580.61 309.112C580.61 306.946 582.016 305.008 582.016 302.424C582.016 301.436 581.826 300.6 581.484 300.144C580.154 298.396 579.318 297.712 578.444 297.712C576.886 297.674 576.43 298.548 576.43 299.764C576.43 302.424 577.798 304.856 577.798 307.288C577.798 309.834 576.658 311.81 574.758 311.81C573.048 311.81 571.87 309.796 571.87 307.972C571.87 304.248 575.024 301.816 575.024 297.028C575.024 293.646 572.82 290.606 572.82 288.174C572.82 286.122 573.96 285.438 575.708 285.438C576.354 285.514 577.038 285.628 577.684 285.628C579.812 285.628 580.838 284.26 581.978 284.26C584.258 284.26 585.132 286.806 584.942 289.276C584.752 290.796 583.498 292.164 583.422 293.684C583.346 296.078 580.8 295.736 580.8 296.838C580.8 297.674 581.826 299.004 582.32 299.46C583.422 300.6 583.156 301.968 584.03 303.26C584.752 304.248 585.93 304.818 586.424 305.882C586.69 306.49 586.842 307.136 586.842 307.782C586.842 309.834 585.398 312.266 583.346 312.266ZM578.52 296.306C579.85 296.306 580.686 295.622 580.686 294.444C580.686 292.962 581.636 292.126 582.586 291.442C582.928 291.214 583.042 290.91 583.042 290.53C583.042 289.086 581.674 286.882 580.078 286.882C577.418 286.882 576.582 290.986 576.582 294.558C576.582 295.622 576.962 296.306 578.52 296.306ZM598.928 312.266C597.37 312.266 596.04 310.252 594.368 310.252C593.038 310.252 591.974 311.772 590.568 311.772C588.934 311.772 587.756 309.492 587.756 307.63C587.756 304.476 590.416 301.854 590.416 298.586C590.416 292.81 587.756 292.088 587.756 288.44C587.756 286.654 589.39 285.172 590.796 285.172C592.24 285.172 592.772 286.578 594.216 286.578C595.774 286.578 596.914 285.02 598.586 285.02C600.22 285.02 600.6 286.464 600.6 287.718C600.6 290.112 599.194 292.164 597.446 292.164C595.09 292.164 594.824 288.858 592.848 288.858C591.328 288.858 591.024 290.302 591.024 292.126C591.024 295.432 591.29 297.674 593.152 297.674C594.824 297.674 596.078 295.356 597.522 295.356C598.814 295.356 599.308 297.028 599.308 298.244C599.308 300.182 598.32 301.474 596.99 301.474C595.356 301.474 594.596 299.232 593.076 299.232C591.86 299.232 591.404 300.904 591.404 302.538C591.404 305.198 592.506 308.808 594.102 308.808C596.192 308.808 598.396 304.02 599.916 304.02C601.322 304.02 601.702 305.578 601.702 307.136C601.702 309.948 600.866 312.266 598.928 312.266Z" fill="#DEFF25"/>
<line y1="353" x2="1344" y2="353" stroke="#DEFF25" stroke-width="10"/>
<line x1="181" y1="350" x2="181" y2="187" stroke="#DEFF25" stroke-width="10"/>
<line x1="337" y1="350" x2="337" y2="187" stroke="#DEFF25" stroke-width="10"/>
<rect x="197.5" y="203.5" width="125" height="73" stroke="#DEFF25" stroke-width="5"/>
<line x1="336.152" y1="290.859" x2="322.646" y2="277.353" stroke="#DEFF25"/>
<line x1="197.152" y1="203.859" x2="183.646" y2="190.353" stroke="#DEFF25"/>
<line x1="196.475" y1="277.34" x2="184.366" y2="290.38" stroke="#DEFF25"/>
<line x1="335.475" y1="190.34" x2="323.366" y2="203.38" stroke="#DEFF25"/>
<g clip-path="url(#clip0_763_4524)">
<path d="M241.873 262.005C240.273 258.462 240.794 254.308 240.286 250.608C240.023 248.698 239.343 248.076 238.706 248.006C238.212 247.95 237.741 248.384 237.432 248.274C235.536 247.595 235.1 241.997 233.943 242.004C233.136 242.009 232.944 245.724 233.18 247.035C233.999 251.567 237.403 255.044 239.209 259.184C240.38 261.87 240.67 263.13 239.862 262.508C236.826 260.172 234.021 256.266 232.458 252.667C230.201 247.477 232.001 241.902 232.585 236.486C233.01 232.548 233.294 228.337 235.171 224.801C236.212 222.84 237.631 220.647 239.389 219.39C240.059 218.91 239.659 220.011 238.813 221.785C237.24 225.088 234.925 228.339 234.135 231.922C233.779 233.53 233.356 237.456 234.41 237.848C234.911 238.035 236.007 236.336 236.45 236.315C237.774 236.256 237.74 239.958 238.356 239.843C239.955 239.546 240.589 235.215 240.703 233.647C240.973 229.961 239.741 225.486 241.063 221.889C241.87 219.692 243.363 216.957 245.409 215.914C246.177 215.523 246.307 216.714 245.898 218.13C245.016 221.175 242.784 223.471 242.179 226.681C241.268 231.508 242.096 236.624 242.133 241.398C242.162 245.026 240.978 248.976 241.647 252.632C242.216 255.746 243.452 258.752 244.408 261.76C245.179 264.185 245.456 266.445 244.634 265.927C243.392 265.144 242.505 263.406 241.871 262.003L241.873 262.005Z" fill="#DEFF25"/>
<path d="M248.288 264.899C247.074 262.801 246.384 260.521 245.888 258.219C244.862 253.474 245.465 248.755 246.26 243.89C246.488 242.1 246.64 240.324 246.661 238.542C246.71 233.991 245.052 229.915 245.884 225.208C246.581 221.277 249.326 213.506 253.497 212.392C254.072 212.238 254.664 212.422 255.118 212.815C255.908 210.79 256.627 209.853 256.836 210.241C257.634 211.728 257.002 214.373 256.819 216.198C257.544 219.059 257.689 221.994 257.644 224.895C257.592 228.382 256.508 231.861 256.487 235.36C256.455 241.256 259.146 246.88 259.223 252.731C259.255 255.209 258.961 258.133 257.777 260.273C257.13 261.443 256.151 261.956 255.463 264.03C254.902 265.733 254.308 268.954 251.776 268.275C251.358 268.162 250.932 267.929 250.494 267.625C250.519 269.171 250.339 269.723 249.831 269.097C249.318 268.466 248.764 267.021 248.29 264.899H248.288ZM247.643 260.465C247.524 259.029 247.517 257.554 247.548 255.952C247.752 250.493 248.637 245.107 249.51 239.765C250.453 233.993 251.311 228.129 252.541 222.364C252.023 222.043 251.613 221.238 250.881 221.454C248.81 222.066 247.772 226.536 247.527 228.777C247.157 232.185 247.891 235.762 247.877 239.107C247.852 244.915 245.764 251.488 246.776 257.343C246.95 258.349 247.294 259.52 247.643 260.465ZM250.295 262.4C250.855 260.283 250.816 257.944 251.083 255.834C251.482 252.666 251.984 251.997 252.852 252.043C253.326 252.068 254.043 252.333 254.887 252.298C256.79 252.217 256.812 248.795 256.8 247.472C256.768 243.656 255.319 239.303 255.364 235.461C255.393 232.98 255.985 230.217 256.127 227.662C256.263 225.218 256.002 223.859 255.505 223.194C254.532 227.613 252.439 231.718 251.623 236.12C250.043 244.655 250.025 253.589 250.295 262.401V262.4Z" fill="#DEFF25"/>
<path d="M260.412 253.798C260.402 250.806 261.058 241.339 264.974 241.394C267.228 241.426 268.091 245.558 268.003 247.573C267.787 252.438 263.944 256.766 264.017 261.25C264.039 262.638 264.369 265.917 266.465 265.76C269.387 265.542 269.945 256.254 270.427 254.306C271.333 250.656 272.743 247.445 271.095 243.737C270.556 242.236 269.72 241.074 268.959 239.664C268.088 238.049 267.515 236.429 267.128 234.628C266.842 233.296 266.81 231.697 266.295 230.695C265.437 229.107 264.202 230.133 263.215 229.804C261.041 229.08 260.539 225.177 260.585 223.113C260.653 219.992 261.832 211.885 266.532 212.545C269.958 213.026 271.946 217.6 272.48 220.644C272.741 222.134 272.561 224.647 271.263 224.833C270.534 224.938 269.226 223.257 268.686 221.422C268.156 219.66 267.505 215.524 265.555 215.339C263.426 215.136 263.234 219.565 263.236 221.214C263.242 225.591 266.989 228.374 268.217 232.57C268.616 234.412 268.895 236.391 269.848 238.052C270.308 238.989 270.962 239.506 271.61 240.355C274.228 244.034 273.915 249.368 273.479 253.491C273.045 257.564 271.351 267.738 266.392 268.667C261.36 269.61 260.422 256.666 260.412 253.797V253.798Z" fill="#DEFF25"/>
<path d="M275.701 257.274C276.09 255.084 276.605 252.882 277.14 250.691C279.265 242.763 283.094 234.206 281.897 225.842C281.82 225.329 281.734 224.824 281.596 224.37C281.362 223.594 280.719 222.426 280.281 222.286C279.906 222.166 280.193 222.093 277.87 225.356C277.282 226.136 276.443 226.934 276.039 226.828C274.462 226.411 273.742 223.496 273.54 221.943C273.378 220.711 273.042 215.848 274.865 216.397C276.562 216.905 277.797 217.96 278.546 218.279C280.65 219.173 280.64 217.83 282.333 219.071C283.959 220.262 285.473 221.928 286.601 223.626C287.999 225.731 287.541 227.203 286.183 226.749C285.218 226.425 283.351 224.195 282.799 224.008C282.092 223.77 283.242 225.903 283.536 227.174C284.398 230.899 283.613 234.494 282.301 238.16C281.003 241.787 279.872 245.526 278.937 249.314C278.526 250.936 278.181 252.596 277.906 254.242C277.649 255.787 276.78 261.951 277.408 261.951C279.104 261.949 282.981 253.152 284.26 249.302C284.895 247.389 286.243 242.241 287.524 242.295C288.762 242.348 288.711 247.023 288.322 248.755C286.985 254.696 282.094 263.043 276.7 265.812C273.723 267.34 275.568 258.038 275.702 257.279L275.701 257.274Z" fill="#DEFF25"/>
</g>
<defs>
<clipPath id="clip0_763_4524">
<rect width="58" height="60" fill="white" transform="translate(231 210)"/>
</clipPath>
</defs>
</svg>
