<svg width="45" height="45" viewBox="0 0 45 45" fill="none" xmlns="http://www.w3.org/2000/svg">
<path d="M1 11.6667C1 8.83769 2.12381 6.12458 4.12419 4.12419C6.12458 2.12381 8.83769 1 11.6667 1H33C35.829 1 38.5421 2.12381 40.5425 4.12419C42.5429 6.12458 43.6667 8.83769 43.6667 11.6667V33C43.6667 35.829 42.5429 38.5421 40.5425 40.5425C38.5421 42.5429 35.829 43.6667 33 43.6667H11.6667C8.83769 43.6667 6.12458 42.5429 4.12419 40.5425C2.12381 38.5421 1 35.829 1 33V11.6667Z" stroke="#EEE1FF" stroke-width="2" stroke-linecap="round" stroke-linejoin="round"/>
<path d="M14.3333 22.3334C14.3333 24.4551 15.1761 26.4899 16.6764 27.9902C18.1767 29.4905 20.2115 30.3334 22.3333 30.3334C24.455 30.3334 26.4898 29.4905 27.9901 27.9902C29.4904 26.4899 30.3333 24.4551 30.3333 22.3334C30.3333 20.2116 29.4904 18.1768 27.9901 16.6765C26.4898 15.1762 24.455 14.3334 22.3333 14.3334C20.2115 14.3334 18.1767 15.1762 16.6764 16.6765C15.1761 18.1768 14.3333 20.2116 14.3333 22.3334Z" stroke="#EEE1FF" stroke-width="2" stroke-linecap="round" stroke-linejoin="round"/>
<path d="M34.3333 10.3334V10.362" stroke="#EEE1FF" stroke-width="2" stroke-linecap="round" stroke-linejoin="round"/>
</svg>
